<svg id="visual" viewBox="0 0 960 540" width="960" height="540" xmlns="http://www.w3.org/2000/svg" xmlns:xlink="http://www.w3.org/1999/xlink" version="1.1"><g stroke-width="1" stroke-linejoin="bevel"><path d="M480.4 280L531.6 267L553.6 150Z" fill="#232323" stroke="#232323"></path><path d="M553.6 150L403.4 103L480.4 280Z" fill="#282828" stroke="#282828"></path><path d="M531.6 267L624.7 176L553.6 150Z" fill="#252525" stroke="#252525"></path><path d="M598.6 446L676.7 328L531.6 267Z" fill="#252525" stroke="#252525"></path><path d="M531.6 267L676.7 328L624.7 176Z" fill="#282828" stroke="#282828"></path><path d="M613.6 0L403.4 103L553.6 150Z" fill="#181818" stroke="#181818"></path><path d="M613.6 0L363.4 0L403.4 103Z" fill="#202020" stroke="#202020"></path><path d="M648.7 0L613.6 0L624.7 176Z" fill="#161616" stroke="#161616"></path><path d="M624.7 176L613.6 0L553.6 150Z" fill="#161616" stroke="#161616"></path><path d="M843.9 126L648.7 0L624.7 176Z" fill="#1b1b1b" stroke="#1b1b1b"></path><path d="M363.4 0L311.3 0L403.4 103Z" fill="#1e1e1e" stroke="#1e1e1e"></path><path d="M403.4 103L221.3 319L480.4 280Z" fill="#282828" stroke="#282828"></path><path d="M480.4 280L598.6 446L531.6 267Z" fill="#282828" stroke="#282828"></path><path d="M311.3 0L221.3 129L403.4 103Z" fill="#131313" stroke="#131313"></path><path d="M480.4 280L369.4 468L598.6 446Z" fill="#181818" stroke="#181818"></path><path d="M221.3 319L304.3 411L480.4 280Z" fill="#252525" stroke="#252525"></path><path d="M598.6 446L707.7 385L676.7 328Z" fill="#252525" stroke="#252525"></path><path d="M870.9 217L843.9 126L624.7 176Z" fill="#1b1b1b" stroke="#1b1b1b"></path><path d="M221.3 129L221.3 319L403.4 103Z" fill="#1b1b1b" stroke="#1b1b1b"></path><path d="M304.3 411L369.4 468L480.4 280Z" fill="#1b1b1b" stroke="#1b1b1b"></path><path d="M369.4 468L539.6 540L598.6 446Z" fill="#1e1e1e" stroke="#1e1e1e"></path><path d="M598.6 446L675.7 540L707.7 385Z" fill="#232323" stroke="#232323"></path><path d="M299.3 540L369.4 468L304.3 411Z" fill="#252525" stroke="#252525"></path><path d="M221.3 129L141.1 266L221.3 319Z" fill="#181818" stroke="#181818"></path><path d="M870.9 217L624.7 176L676.7 328Z" fill="#131313" stroke="#131313"></path><path d="M299.3 540L356.4 540L369.4 468Z" fill="#282828" stroke="#282828"></path><path d="M369.4 468L356.4 540L539.6 540Z" fill="#252525" stroke="#252525"></path><path d="M179.1 437L304.3 411L221.3 319Z" fill="#1e1e1e" stroke="#1e1e1e"></path><path d="M128.1 0L116.1 153L221.3 129Z" fill="#282828" stroke="#282828"></path><path d="M221.3 129L116.1 153L141.1 266Z" fill="#202020" stroke="#202020"></path><path d="M773.9 540L837.9 346L707.7 385Z" fill="#252525" stroke="#252525"></path><path d="M707.7 385L837.9 346L676.7 328Z" fill="#1b1b1b" stroke="#1b1b1b"></path><path d="M837.9 346L870.9 217L676.7 328Z" fill="#202020" stroke="#202020"></path><path d="M141.1 266L179.1 437L221.3 319Z" fill="#252525" stroke="#252525"></path><path d="M179.1 437L299.3 540L304.3 411Z" fill="#131313" stroke="#131313"></path><path d="M539.6 540L675.7 540L598.6 446Z" fill="#282828" stroke="#282828"></path><path d="M311.3 0L128.1 0L221.3 129Z" fill="#202020" stroke="#202020"></path><path d="M843.9 126L876.9 0L648.7 0Z" fill="#202020" stroke="#202020"></path><path d="M960 134L876.9 0L843.9 126Z" fill="#0c0c0c" stroke="#0c0c0c"></path><path d="M675.7 540L773.9 540L707.7 385Z" fill="#161616" stroke="#161616"></path><path d="M960 322L960 134L870.9 217Z" fill="#232323" stroke="#232323"></path><path d="M870.9 217L960 134L843.9 126Z" fill="#232323" stroke="#232323"></path><path d="M960 322L870.9 217L837.9 346Z" fill="#181818" stroke="#181818"></path><path d="M0 454L145.1 540L179.1 437Z" fill="#181818" stroke="#181818"></path><path d="M179.1 437L145.1 540L299.3 540Z" fill="#1b1b1b" stroke="#1b1b1b"></path><path d="M0 454L179.1 437L141.1 266Z" fill="#131313" stroke="#131313"></path><path d="M0 0L0 194L116.1 153Z" fill="#1e1e1e" stroke="#1e1e1e"></path><path d="M116.1 153L0 207L141.1 266Z" fill="#181818" stroke="#181818"></path><path d="M0 194L0 207L116.1 153Z" fill="#0c0c0c" stroke="#0c0c0c"></path><path d="M960 418L960 322L837.9 346Z" fill="#101010" stroke="#101010"></path><path d="M960 134L960 0L876.9 0Z" fill="#252525" stroke="#252525"></path><path d="M773.9 540L960 418L837.9 346Z" fill="#161616" stroke="#161616"></path><path d="M128.1 0L0 0L116.1 153Z" fill="#131313" stroke="#131313"></path><path d="M0 207L0 454L141.1 266Z" fill="#252525" stroke="#252525"></path><path d="M773.9 540L960 540L960 418Z" fill="#252525" stroke="#252525"></path><path d="M0 454L0 540L145.1 540Z" fill="#202020" stroke="#202020"></path></g></svg>